<svg viewBox="0 -2 21 21" fill="none" xmlns="http://www.w3.org/2000/svg">
<path fill-rule="evenodd" clip-rule="evenodd" d="M9.16602 14.9997H10.8327V13.333H9.16602V14.9997ZM9.99935 1.66705C5.39935 1.66705 1.66602 5.40039 1.66602 10.0004C1.66602 14.6004 5.39935 18.3337 9.99935 18.3337C14.5993 18.3337 18.3327 14.6004 18.3327 10.0004C18.3327 5.40039 14.5993 1.66705 9.99935 1.66705ZM10.0007 16.6663C6.32565 16.6663 3.33398 13.6747 3.33398 9.99968C3.33398 6.32468 6.32565 3.33301 10.0007 3.33301C13.6757 3.33301 16.6673 6.32468 16.6673 9.99968C16.6673 13.6747 13.6757 16.6663 10.0007 16.6663ZM9.99935 5.00006C8.15768 5.00006 6.66602 6.49173 6.66602 8.33339H8.33268C8.33268 7.41673 9.08268 6.66673 9.99935 6.66673C10.916 6.66673 11.666 7.41673 11.666 8.33339C11.666 10.0001 9.16602 9.79173 9.16602 12.5001H10.8327C10.8327 10.6251 13.3327 10.4167 13.3327 8.33339C13.3327 6.49173 11.841 5.00006 9.99935 5.00006Z" fill="#DA291C"/>
</svg>
