<svg width="34" height="34" viewBox="0 0 34 34" fill="none" xmlns="http://www.w3.org/2000/svg">
<path fill-rule="evenodd" clip-rule="evenodd" d="M16.9578 0C7.60942 0 0 7.60942 0 16.9578C0 26.3063 7.60942 33.9157 16.9578 33.9157C26.3063 33.9157 33.9157 26.3063 33.9157 16.9578C33.9157 7.60942 26.3063 0 16.9578 0ZM16.9578 3.08284C24.6398 3.08284 30.8328 9.2759 30.8328 16.9578C30.8328 24.6398 24.6398 30.8328 16.9578 30.8328C9.2759 30.8328 3.08284 24.6398 3.08284 16.9578C3.08284 9.2759 9.2759 3.08284 16.9578 3.08284ZM22.6089 11.5625C22.2085 11.5683 21.8269 11.7302 21.5437 12.0135L14.6927 18.6649L12.3716 16.4132C12.0796 16.1212 11.6822 15.9593 11.2702 15.9637C10.8583 15.9666 10.4637 16.1357 10.1761 16.432C9.88997 16.7282 9.73244 17.1272 9.74254 17.5391C9.75122 17.951 9.92465 18.3427 10.2253 18.6259L13.6218 21.9198C14.2201 22.4994 15.1711 22.4979 15.7681 21.9169L23.6898 14.2235C24.1523 13.787 24.2982 13.1121 24.0598 12.5238C23.8198 11.9356 23.2446 11.554 22.6087 11.5626L22.6089 11.5625Z" fill="#EFEFEF"/>
</svg>
