<svg width="34" height="35" viewBox="0 0 34 35" fill="none" xmlns="http://www.w3.org/2000/svg">
<path d="M32.4875 31.1006L22.5221 20.7C24.0548 18.6 24.9173 15.9 24.9173 12.9994C24.9173 5.79936 19.3596 0 12.4596 0C5.55956 0 0 5.80128 0 13.0013C0 20.2013 5.55772 26.0006 12.4577 26.0006C15.2375 26.0006 17.7279 25.1006 19.8375 23.5013L29.8048 33.9019C30.1875 34.3013 30.6673 34.5019 31.1471 34.5019C31.6268 34.5019 32.1048 34.3013 32.4893 33.9019C33.2548 33.1013 33.2548 31.9013 32.4875 31.1007L32.4875 31.1006ZM12.4596 22.0013C7.66728 22.0013 3.83456 18.0019 3.83456 13.0013C3.83456 8.00064 7.66728 4.00128 12.4596 4.00128C17.2518 4.00128 21.0846 8.00064 21.0846 13.0013C21.0846 18 17.25 22.0013 12.4596 22.0013Z" fill="#EFEFEF"/>
</svg>
