<svg width="33" height="33" viewBox="0 0 33 33" fill="none" xmlns="http://www.w3.org/2000/svg">
<path d="M16.5 0C7.39929 0 0 7.39929 0 16.5C0 25.6007 7.39929 33 16.5 33C25.6007 33 33 25.6007 33 16.5C33 7.39929 25.6007 0 16.5 0ZM16.5 30.0474C9.03158 30.0474 2.95263 23.9684 2.95263 16.5C2.95263 9.03158 9.03158 2.95263 16.5 2.95263C23.9684 2.95263 30.0474 9.03158 30.0474 16.5C30.0474 23.9684 23.9684 30.0474 16.5 30.0474Z" fill="#EFEFEF"/>
<path d="M23.8996 10.595L22.4057 9.10106C22.1967 8.8921 21.8493 8.8921 21.6418 9.10106L16.5004 14.2425L11.359 9.10106C11.15 8.8921 10.8026 8.8921 10.595 9.10106L9.10106 10.595C8.8921 10.804 8.8921 11.1514 9.10106 11.359L14.2425 16.5004L9.10106 21.6418C8.8921 21.8507 8.8921 22.1981 9.10106 22.4057L10.6289 23.9336C10.8379 24.1425 11.1853 24.1425 11.3929 23.9336L16.5002 18.7585L21.6416 23.8999C21.8506 24.1088 22.198 24.1088 22.4055 23.8999L23.9334 22.372C24.1424 22.163 24.1424 21.8156 23.9334 21.6081L18.7583 16.5007L23.8997 11.3593C24.1073 11.1517 24.1073 10.8043 23.8997 10.5954L23.8996 10.595Z" fill="#EFEFEF"/>
</svg>
